<svg width="55" height="54" viewBox="0 0 55 54" fill="none" xmlns="http://www.w3.org/2000/svg">
<path d="M35.0938 23.4844H36.2188V37H35.0938V23.4844ZM39.5938 23.4844H40.7188V37H39.5938V23.4844ZM37.3438 23.4844H38.4688V37H37.3438V23.4844ZM33.9688 23.4844V37C31.9896 37.75 29.9375 38.125 27.8125 38.125C25.9688 38.125 24.2031 37.7865 22.5156 37.1094C20.8281 36.4323 19.3438 35.4948 18.0625 34.2969C16.7812 33.0885 15.7552 31.599 14.9844 29.8281C14.224 28.0469 13.8438 26.125 13.8438 24.0625C13.8438 22.1562 14.2135 20.3385 14.9531 18.6094C15.7031 16.8698 16.7031 15.375 17.9531 14.125C19.2135 12.8646 20.7083 11.8646 22.4375 11.125C24.1771 10.375 26 10 27.9062 10C30.2812 10 32.4896 10.5521 34.5312 11.6562C36.5729 12.7604 38.2396 14.2604 39.5312 16.1562L38.5938 16.7656C37.4062 15.026 35.8698 13.651 33.9844 12.6406C32.1094 11.6302 30.0833 11.125 27.9062 11.125C26.1562 11.125 24.4792 11.4688 22.875 12.1562C21.2812 12.8333 19.9062 13.75 18.75 14.9062C17.5938 16.0625 16.6719 17.4427 15.9844 19.0469C15.3073 20.6406 14.9688 22.3125 14.9688 24.0625C14.9688 25.9479 15.3177 27.7083 16.0156 29.3438C16.724 30.9792 17.6615 32.349 18.8281 33.4531C20.0052 34.5573 21.3698 35.4271 22.9219 36.0625C24.474 36.6875 26.0885 37 27.7656 37C29.526 37 31.2188 36.724 32.8438 36.1719V35.0938C31.2917 35.6146 29.6615 35.875 27.9531 35.875C26.7135 35.875 25.5052 35.7031 24.3281 35.3594C23.1615 35.0052 22.0781 34.4896 21.0781 33.8125C20.0885 33.125 19.2188 32.3125 18.4688 31.375C17.7292 30.4271 17.1458 29.3281 16.7188 28.0781C16.3021 26.8177 16.0938 25.4792 16.0938 24.0625C16.0938 21.9271 16.6198 19.9531 17.6719 18.1406C18.7344 16.3281 20.1719 14.8958 21.9844 13.8438C23.7969 12.7812 25.7708 12.25 27.9062 12.25C29.9062 12.25 31.7656 12.7188 33.4844 13.6562C35.2031 14.5833 36.6042 15.8438 37.6875 17.4375L36.75 18.0469C35.7708 16.6094 34.5 15.474 32.9375 14.6406C31.3854 13.7969 29.7083 13.375 27.9062 13.375C26.4583 13.375 25.0729 13.6562 23.75 14.2188C22.4271 14.7812 21.2865 15.5417 20.3281 16.5C19.3802 17.4479 18.625 18.5833 18.0625 19.9062C17.5 21.2292 17.2188 22.6146 17.2188 24.0625C17.2188 25.3646 17.4062 26.5885 17.7812 27.7344C18.1667 28.8698 18.6927 29.8646 19.3594 30.7188C20.0365 31.5625 20.8229 32.2917 21.7188 32.9062C22.6146 33.5104 23.5885 33.9688 24.6406 34.2812C25.7031 34.5938 26.7917 34.75 27.9062 34.75C29.6354 34.75 31.2812 34.4583 32.8438 33.875V32.75C31.3021 33.3438 29.6927 33.6406 28.0156 33.6406C26.7448 33.6406 25.5312 33.4271 24.375 33C23.2188 32.5625 22.1875 31.9479 21.2812 31.1562C20.3854 30.3646 19.6719 29.3542 19.1406 28.125C18.6094 26.8958 18.3438 25.5417 18.3438 24.0625C18.3438 22.3333 18.7708 20.7344 19.625 19.2656C20.4792 17.7969 21.6406 16.6354 23.1094 15.7812C24.5781 14.9271 26.1771 14.5 27.9062 14.5C29.5208 14.5 31.0208 14.875 32.4062 15.625C33.8021 16.375 34.9375 17.3958 35.8125 18.6875L34.875 19.2969C34.1042 18.1719 33.1042 17.2812 31.875 16.625C30.6562 15.9583 29.3333 15.625 27.9062 15.625C26.375 15.625 24.9635 16.0052 23.6719 16.7656C22.3802 17.5156 21.3542 18.5365 20.5938 19.8281C19.8438 21.1198 19.4688 22.5312 19.4688 24.0625C19.4688 25.125 19.6198 26.1146 19.9219 27.0312C20.224 27.9479 20.6406 28.7396 21.1719 29.4062C21.7031 30.0729 22.3229 30.6406 23.0312 31.1094C23.75 31.5781 24.5208 31.9323 25.3438 32.1719C26.1667 32.401 27.0208 32.5156 27.9062 32.5156C29.6667 32.5156 31.3125 32.1667 32.8438 31.4688V30.3906C31.3646 31.0469 29.7656 31.375 28.0469 31.375C27.0573 31.375 26.125 31.224 25.25 30.9219C24.375 30.6198 23.5833 30.1771 22.875 29.5938C22.1771 29.0104 21.6198 28.2448 21.2031 27.2969C20.7969 26.3385 20.5938 25.2604 20.5938 24.0625C20.5938 23.0729 20.7865 22.1302 21.1719 21.2344C21.5573 20.3281 22.0781 19.5469 22.7344 18.8906C23.3906 18.2344 24.1667 17.7135 25.0625 17.3281C25.9688 16.9427 26.9167 16.75 27.9062 16.75C29.1458 16.75 30.2969 17.0417 31.3594 17.625C32.4219 18.1979 33.2865 18.9792 33.9531 19.9688L33.0312 20.5781C32.4688 19.7448 31.7344 19.0885 30.8281 18.6094C29.9323 18.1198 28.9583 17.875 27.9062 17.875C26.1979 17.875 24.7396 18.4792 23.5312 19.6875C22.3229 20.8958 21.7188 22.3542 21.7188 24.0625C21.7188 25.1146 21.8906 26.0469 22.2344 26.8594C22.5781 27.6615 23.0469 28.3073 23.6406 28.7969C24.2448 29.276 24.9115 29.6406 25.6406 29.8906C26.3802 30.1302 27.1719 30.25 28.0156 30.25C29.7448 30.25 31.3542 29.8906 32.8438 29.1719V23.4844H33.9688Z" fill="#320E3B"/>
<path d="M35.0938 23.4844V22.9844H34.5938V23.4844H35.0938ZM36.2188 23.4844H36.7188V22.9844H36.2188V23.4844ZM36.2188 37V37.5H36.7188V37H36.2188ZM35.0938 37H34.5938V37.5H35.0938V37ZM39.5938 23.4844V22.9844H39.0938V23.4844H39.5938ZM40.7188 23.4844H41.2188V22.9844H40.7188V23.4844ZM40.7188 37V37.5H41.2188V37H40.7188ZM39.5938 37H39.0938V37.5H39.5938V37ZM37.3438 23.4844V22.9844H36.8438V23.4844H37.3438ZM38.4688 23.4844H38.9688V22.9844H38.4688V23.4844ZM38.4688 37V37.5H38.9688V37H38.4688ZM37.3438 37H36.8438V37.5H37.3438V37ZM33.9688 23.4844H34.4688V22.9844H33.9688V23.4844ZM33.9688 37L34.1459 37.4676L34.4688 37.3452V37H33.9688ZM18.0625 34.2969L17.7194 34.6606L17.721 34.6621L18.0625 34.2969ZM14.9844 29.8281L14.5245 30.0244L14.5259 30.0277L14.9844 29.8281ZM14.9531 18.6094L14.494 18.4114L14.4934 18.4128L14.9531 18.6094ZM22.4375 11.125L22.6341 11.5847L22.6355 11.5841L22.4375 11.125ZM39.5312 16.1562L39.8037 16.5755L40.2322 16.297L39.9445 15.8747L39.5312 16.1562ZM38.5938 16.7656L38.1808 17.0475L38.4564 17.4513L38.8662 17.1848L38.5938 16.7656ZM33.9844 12.6406L33.7472 13.0808L33.7482 13.0813L33.9844 12.6406ZM22.875 12.1562L23.0705 12.6164L23.072 12.6158L22.875 12.1562ZM15.9844 19.0469L15.5248 18.8499L15.5242 18.8514L15.9844 19.0469ZM16.0156 29.3438L15.5557 29.54L15.5568 29.5425L16.0156 29.3438ZM18.8281 33.4531L18.4844 33.8163L18.486 33.8178L18.8281 33.4531ZM22.9219 36.0625L22.7324 36.5252L22.7351 36.5263L22.9219 36.0625ZM32.8438 36.1719L33.0046 36.6453L33.3438 36.5301V36.1719H32.8438ZM32.8438 35.0938H33.3438V34.3986L32.6847 34.6197L32.8438 35.0938ZM24.3281 35.3594L24.1829 35.8378L24.188 35.8393L24.3281 35.3594ZM21.0781 33.8125L20.7928 34.2232L20.7978 34.2265L21.0781 33.8125ZM18.4688 31.375L18.0745 31.6826L18.0783 31.6873L18.4688 31.375ZM16.7188 28.0781L16.244 28.2351L16.2456 28.2398L16.7188 28.0781ZM17.6719 18.1406L17.2405 17.8878L17.2394 17.8896L17.6719 18.1406ZM21.9844 13.8438L22.2354 14.2762L22.2372 14.2751L21.9844 13.8438ZM33.4844 13.6562L33.2449 14.0952L33.247 14.0963L33.4844 13.6562ZM37.6875 17.4375L37.96 17.8567L38.388 17.5785L38.101 17.1564L37.6875 17.4375ZM36.75 18.0469L36.3368 18.3284L36.6122 18.7328L37.0225 18.4661L36.75 18.0469ZM32.9375 14.6406L32.6987 15.0799L32.7022 15.0818L32.9375 14.6406ZM20.3281 16.5L19.9746 16.1464L20.3281 16.5ZM17.7812 27.7344L17.306 27.8899L17.3078 27.8951L17.7812 27.7344ZM19.3594 30.7188L18.9652 31.0264L18.9694 31.0317L19.3594 30.7188ZM21.7188 32.9062L21.4359 33.3186L21.4392 33.3208L21.7188 32.9062ZM24.6406 34.2812L24.4983 34.7606L24.4995 34.7609L24.6406 34.2812ZM32.8438 33.875L33.0186 34.3434L33.3438 34.222V33.875H32.8438ZM32.8438 32.75H33.3438V32.0216L32.6641 32.2834L32.8438 32.75ZM24.375 33L24.198 33.4677L24.2018 33.469L24.375 33ZM21.2812 31.1562L20.9501 31.5309L20.9523 31.5328L21.2812 31.1562ZM32.4062 15.625L32.1682 16.0647L32.1696 16.0654L32.4062 15.625ZM35.8125 18.6875L36.085 19.1067L36.5123 18.829L36.2265 18.4071L35.8125 18.6875ZM34.875 19.2969L34.4625 19.5795L34.7384 19.982L35.1475 19.7161L34.875 19.2969ZM31.875 16.625L31.635 17.0637L31.6395 17.0661L31.875 16.625ZM23.6719 16.7656L23.9229 17.198L23.9255 17.1965L23.6719 16.7656ZM20.5938 19.8281L20.1629 19.5745L20.1614 19.5771L20.5938 19.8281ZM21.1719 29.4062L21.5629 29.0946L21.1719 29.4062ZM23.0312 31.1094L22.7553 31.5264L22.7581 31.5282L23.0312 31.1094ZM25.3438 32.1719L25.204 32.652L25.2096 32.6535L25.3438 32.1719ZM32.8438 31.4688L33.0511 31.9237L33.3438 31.7903V31.4688H32.8438ZM32.8438 30.3906H33.3438V29.6218L32.641 29.9336L32.8438 30.3906ZM22.875 29.5938L22.5543 29.9774L22.5571 29.9797L22.875 29.5938ZM21.2031 27.2969L20.7427 27.492L20.7454 27.4981L21.2031 27.2969ZM21.1719 21.2344L21.6312 21.432L21.632 21.4301L21.1719 21.2344ZM25.0625 17.3281L24.8668 16.868L24.8649 16.8688L25.0625 17.3281ZM31.3594 17.625L31.1187 18.0633L31.1221 18.0651L31.3594 17.625ZM33.9531 19.9688L34.2288 20.3859L34.6496 20.1077L34.3678 19.6894L33.9531 19.9688ZM33.0312 20.5781L32.6168 20.8579L32.8939 21.2683L33.307 20.9952L33.0312 20.5781ZM30.8281 18.6094L30.5883 19.0482L30.5944 19.0514L30.8281 18.6094ZM22.2344 26.8594L21.7739 27.0542L21.7748 27.0563L22.2344 26.8594ZM23.6406 28.7969L23.3225 29.1827L23.3299 29.1886L23.6406 28.7969ZM25.6406 29.8906L25.4784 30.3637L25.4865 30.3663L25.6406 29.8906ZM32.8438 29.1719L33.061 29.6222L33.3438 29.4858V29.1719H32.8438ZM32.8438 23.4844V22.9844H32.3438V23.4844H32.8438ZM35.0938 23.9844H36.2188V22.9844H35.0938V23.9844ZM35.7188 23.4844V37H36.7188V23.4844H35.7188ZM36.2188 36.5H35.0938V37.5H36.2188V36.5ZM35.5938 37V23.4844H34.5938V37H35.5938ZM39.5938 23.9844H40.7188V22.9844H39.5938V23.9844ZM40.2188 23.4844V37H41.2188V23.4844H40.2188ZM40.7188 36.5H39.5938V37.5H40.7188V36.5ZM40.0938 37V23.4844H39.0938V37H40.0938ZM37.3438 23.9844H38.4688V22.9844H37.3438V23.9844ZM37.9688 23.4844V37H38.9688V23.4844H37.9688ZM38.4688 36.5H37.3438V37.5H38.4688V36.5ZM37.8438 37V23.4844H36.8438V37H37.8438ZM33.4688 23.4844V37H34.4688V23.4844H33.4688ZM33.7916 36.5324C31.8692 37.2609 29.8772 37.625 27.8125 37.625V38.625C29.9978 38.625 32.1099 38.2391 34.1459 37.4676L33.7916 36.5324ZM27.8125 37.625C26.0316 37.625 24.3293 37.2983 22.7018 36.6453L22.3294 37.5734C24.077 38.2746 25.9059 38.625 27.8125 38.625V37.625ZM22.7018 36.6453C21.0696 35.9904 19.6384 35.0858 18.404 33.9316L17.721 34.6621C19.0491 35.9038 20.5866 36.8741 22.3294 37.5734L22.7018 36.6453ZM18.4056 33.9331C17.178 32.7755 16.1893 31.3435 15.4428 29.6286L14.5259 30.0277C15.3211 31.8545 16.3845 33.4016 17.7194 34.6606L18.4056 33.9331ZM15.4442 29.6318C14.712 27.9166 14.3438 26.062 14.3438 24.0625H13.3438C13.3438 26.188 13.7359 28.1772 14.5245 30.0244L15.4442 29.6318ZM14.3438 24.0625C14.3438 22.2229 14.7002 20.4722 15.4128 18.806L14.4934 18.4128C13.7269 20.2049 13.3438 22.0896 13.3438 24.0625H14.3438ZM15.4123 18.8073C16.139 17.1216 17.1045 15.6807 18.3067 14.4786L17.5996 13.7714C16.3017 15.0693 15.2672 16.618 14.494 18.4114L15.4123 18.8073ZM18.3067 14.4786C19.5196 13.2657 20.9603 12.3006 22.6341 11.5847L22.2409 10.6653C20.4564 11.4285 18.9075 12.4635 17.5996 13.7714L18.3067 14.4786ZM22.6355 11.5841C24.3121 10.8613 26.0676 10.5 27.9062 10.5V9.5C25.9324 9.5 24.042 9.88873 22.2395 10.6659L22.6355 11.5841ZM27.9062 10.5C30.2002 10.5 32.3265 11.0323 34.2934 12.0961L34.7691 11.2164C32.6526 10.0718 30.3623 9.5 27.9062 9.5V10.5ZM34.2934 12.0961C36.2657 13.1627 37.8719 14.6088 39.118 16.4378L39.9445 15.8747C38.6073 13.9121 36.8802 12.3581 34.7691 11.2164L34.2934 12.0961ZM39.2588 15.737L38.3213 16.3464L38.8662 17.1848L39.8037 16.5755L39.2588 15.737ZM39.0067 16.4837C37.7732 14.6767 36.1757 13.2477 34.2206 12.1999L33.7482 13.0813C35.5639 14.0544 37.0393 15.3754 38.1808 17.0475L39.0067 16.4837ZM34.2216 12.2005C32.272 11.1499 30.1642 10.625 27.9062 10.625V11.625C30.0024 11.625 31.9467 12.1105 33.7472 13.0808L34.2216 12.2005ZM27.9062 10.625C26.0887 10.625 24.3446 10.9824 22.678 11.6967L23.072 12.6158C24.6137 11.9551 26.2238 11.625 27.9062 11.625V10.625ZM22.6795 11.6961C21.0302 12.3967 19.6007 13.3485 18.3964 14.5527L19.1036 15.2598C20.2118 14.1515 21.5323 13.2699 23.0705 12.6164L22.6795 11.6961ZM18.3964 14.5527C17.1923 15.7569 16.2357 17.1913 15.5248 18.8499L16.4439 19.2438C17.1081 17.6942 17.9952 16.3681 19.1036 15.2598L18.3964 14.5527ZM15.5242 18.8514C14.8205 20.5076 14.4688 22.2461 14.4688 24.0625H15.4688C15.4688 22.3789 15.794 20.7736 16.4446 19.2424L15.5242 18.8514ZM14.4688 24.0625C14.4688 26.0112 14.8298 27.8389 15.5557 29.54L16.4755 29.1475C15.8056 27.5778 15.4688 25.8846 15.4688 24.0625H14.4688ZM15.5568 29.5425C16.2891 31.2331 17.2636 32.6608 18.4844 33.8163L19.1718 33.09C18.0594 32.0371 17.1589 30.7252 16.4744 29.145L15.5568 29.5425ZM18.486 33.8178C19.7093 34.9653 21.1262 35.8676 22.7324 36.5252L23.1113 35.5998C21.6134 34.9865 20.3011 34.1493 19.1702 33.0885L18.486 33.8178ZM22.7351 36.5263C24.3467 37.1753 26.0247 37.5 27.7656 37.5V36.5C26.1524 36.5 24.6012 36.1997 23.1086 35.5987L22.7351 36.5263ZM27.7656 37.5C29.5793 37.5 31.3265 37.2154 33.0046 36.6453L32.6829 35.6985C31.111 36.2325 29.4728 36.5 27.7656 36.5V37.5ZM33.3438 36.1719V35.0938H32.3438V36.1719H33.3438ZM32.6847 34.6197C31.1861 35.1226 29.6098 35.375 27.9531 35.375V36.375C29.7132 36.375 31.3973 36.1065 33.0028 35.5678L32.6847 34.6197ZM27.9531 35.375C26.7605 35.375 25.5993 35.2097 24.4683 34.8794L24.188 35.8393C25.4111 36.1965 26.6666 36.375 27.9531 36.375V35.375ZM24.4734 34.8809C23.3542 34.5412 22.3165 34.0472 21.3585 33.3985L20.7978 34.2265C21.8397 34.932 22.9687 35.4692 24.1829 35.8378L24.4734 34.8809ZM21.3634 33.4019C20.4133 32.7418 19.5789 31.9624 18.8592 31.0627L18.0783 31.6873C18.8586 32.6626 19.7638 33.5082 20.7928 34.2231L21.3634 33.4019ZM18.863 31.0674C18.1608 30.1675 17.6027 29.119 17.1919 27.9165L16.2456 28.2398C16.6889 29.5373 17.2975 30.6866 18.0745 31.6826L18.863 31.0674ZM17.1935 27.9212C16.7946 26.7147 16.5938 25.4294 16.5938 24.0625H15.5938C15.5938 25.5289 15.8095 26.9207 16.244 28.2351L17.1935 27.9212ZM16.5938 24.0625C16.5938 22.0135 17.0974 20.1264 18.1043 18.3916L17.2394 17.8896C16.1422 19.7799 15.5938 21.8407 15.5938 24.0625H16.5938ZM18.1032 18.3935C19.1222 16.6552 20.4977 15.2848 22.2354 14.2762L21.7334 13.4113C19.8461 14.5068 18.3465 16.0011 17.2405 17.8878L18.1032 18.3935ZM22.2372 14.2751C23.9717 13.2583 25.8582 12.75 27.9062 12.75V11.75C25.6835 11.75 23.622 12.3042 21.7315 13.4124L22.2372 14.2751ZM27.9062 12.75C29.8245 12.75 31.6013 13.1986 33.2449 14.0952L33.7238 13.2173C31.93 12.2389 29.988 11.75 27.9062 11.75V12.75ZM33.247 14.0963C34.8961 14.9858 36.2364 16.1921 37.274 17.7186L38.101 17.1564C36.972 15.4954 35.5101 14.1808 33.7217 13.2162L33.247 14.0963ZM37.415 17.0183L36.4775 17.6277L37.0225 18.4661L37.96 17.8567L37.415 17.0183ZM37.1632 17.7654C36.1377 16.2598 34.8053 15.0701 33.1728 14.1994L32.7022 15.0818C34.1947 15.8778 35.404 16.9589 36.3368 18.3284L37.1632 17.7654ZM33.1763 14.2013C31.5494 13.3169 29.79 12.875 27.9062 12.875V13.875C29.6267 13.875 31.2214 14.2768 32.6987 15.0799L33.1763 14.2013ZM27.9062 12.875C26.3916 12.875 24.9396 13.1696 23.5544 13.7586L23.9456 14.6789C25.2062 14.1429 26.5251 13.875 27.9062 13.875V12.875ZM23.5544 13.7586C22.1761 14.3447 20.9809 15.1401 19.9746 16.1464L20.6817 16.8536C21.592 15.9432 22.6781 15.2178 23.9456 14.6789L23.5544 13.7586ZM19.9746 16.1464C18.9781 17.1429 18.1881 18.333 17.6024 19.7106L18.5226 20.1019C19.0619 18.8337 19.7823 17.753 20.6817 16.8536L19.9746 16.1464ZM17.6024 19.7106C17.0134 21.0958 16.7188 22.5478 16.7188 24.0625H17.7188C17.7188 22.6813 17.9866 21.3625 18.5226 20.1019L17.6024 19.7106ZM16.7188 24.0625C16.7188 25.4132 16.9134 26.69 17.3061 27.8899L18.2564 27.5789C17.8991 26.4871 17.7188 25.316 17.7188 24.0625H16.7188ZM17.3078 27.8951C17.7093 29.078 18.2606 30.1236 18.9652 31.0264L19.7535 30.4111C19.1248 29.6056 18.624 28.6616 18.2547 27.5737L17.3078 27.8951ZM18.9694 31.0317C19.6773 31.9138 20.4999 32.6764 21.4359 33.3186L22.0016 32.4939C21.146 31.9069 20.3956 31.2112 19.7493 30.4058L18.9694 31.0317ZM21.4392 33.3208C22.3779 33.9538 23.3982 34.4338 24.4983 34.7606L24.783 33.8019C23.7789 33.5037 22.8513 33.067 21.9983 32.4917L21.4392 33.3208ZM24.4995 34.7609C25.6082 35.087 26.7442 35.25 27.9062 35.25V34.25C26.8391 34.25 25.7981 34.1005 24.7817 33.8016L24.4995 34.7609ZM27.9062 35.25C29.6929 35.25 31.3981 34.9484 33.0186 34.3434L32.6689 33.4066C31.1644 33.9683 29.5779 34.25 27.9062 34.25V35.25ZM33.3438 33.875V32.75H32.3438V33.875H33.3438ZM32.6641 32.2834C31.1806 32.8547 29.6322 33.1406 28.0156 33.1406V34.1406C29.7532 34.1406 31.4236 33.8328 33.0234 33.2166L32.6641 32.2834ZM28.0156 33.1406C26.8021 33.1406 25.6473 32.9369 24.5482 32.531L24.2018 33.469C25.4152 33.9172 26.6875 34.1406 28.0156 34.1406V33.1406ZM24.5519 32.5324C23.4498 32.1153 22.4704 31.5311 21.6102 30.7797L20.9523 31.5328C21.9046 32.3647 22.9877 33.0097 24.1981 33.4676L24.5519 32.5324ZM21.6123 30.7816C20.7779 30.0441 20.1052 29.0965 19.5996 27.9266L18.6817 28.3234C19.2385 29.6118 19.993 30.685 20.9502 31.5309L21.6123 30.7816ZM19.5996 27.9266C19.0981 26.7664 18.8438 25.4806 18.8438 24.0625H17.8438C17.8438 25.6027 18.1206 27.0253 18.6817 28.3234L19.5996 27.9266ZM18.8438 24.0625C18.8438 22.42 19.2483 20.908 20.0572 19.517L19.1928 19.0143C18.2934 20.5608 17.8438 22.2467 17.8438 24.0625H18.8438ZM20.0572 19.517C20.8678 18.1232 21.9669 17.0241 23.3607 16.2135L22.858 15.349C21.3143 16.2468 20.0905 17.4706 19.1928 19.0143L20.0572 19.517ZM23.3607 16.2135C24.7517 15.4045 26.2637 15 27.9062 15V14C26.0904 14 24.4045 14.4497 22.858 15.349L23.3607 16.2135ZM27.9062 15C29.4399 15 30.8578 15.3553 32.1682 16.0647L32.6443 15.1853C31.1839 14.3947 29.6018 14 27.9062 14V15ZM32.1696 16.0654C33.4954 16.7778 34.5696 17.7442 35.3985 18.9679L36.2265 18.4071C35.3054 17.0474 34.1087 15.9722 32.6429 15.1846L32.1696 16.0654ZM35.54 18.2683L34.6025 18.8777L35.1475 19.7161L36.085 19.1067L35.54 18.2683ZM35.2875 19.0143C34.4702 17.8215 33.4089 16.8772 32.1105 16.1839L31.6395 17.0661C32.7994 17.6853 33.7381 18.5222 34.4625 19.5795L35.2875 19.0143ZM32.115 16.1863C30.8206 15.4783 29.4148 15.125 27.9062 15.125V16.125C29.2519 16.125 30.4919 16.4384 31.635 17.0637L32.115 16.1863ZM27.9062 15.125C26.2878 15.125 24.7885 15.5281 23.4182 16.3347L23.9255 17.1965C25.1386 16.4824 26.4622 16.125 27.9062 16.125V15.125ZM23.4208 16.3332C22.0546 17.1265 20.9667 18.209 20.1629 19.5745L21.0246 20.0818C21.7416 18.8639 22.7058 17.9047 23.9229 17.198L23.4208 16.3332ZM20.1614 19.5771C19.3659 20.947 18.9688 22.4454 18.9688 24.0625H19.9688C19.9688 22.6171 20.3216 21.2926 21.0261 20.0792L20.1614 19.5771ZM18.9688 24.0625C18.9688 25.1728 19.1267 26.2158 19.447 27.1877L20.3968 26.8748C20.1129 26.0134 19.9688 25.0772 19.9688 24.0625H18.9688ZM19.447 27.1877C19.7652 28.1533 20.2081 28.9992 20.7808 29.7179L21.5629 29.0946C21.0731 28.48 20.6827 27.7425 20.3968 26.8748L19.447 27.1877ZM20.7808 29.7179C21.3446 30.4253 22.0032 31.0286 22.7553 31.5263L23.3072 30.6924C22.6427 30.2526 22.0617 29.7205 21.5629 29.0946L20.7808 29.7179ZM22.7581 31.5282C23.518 32.0238 24.3338 32.3986 25.204 32.6519L25.4835 31.6918C24.7079 31.466 23.982 31.1325 23.3044 30.6906L22.7581 31.5282ZM25.2096 32.6535C26.0778 32.8953 26.9772 33.0156 27.9062 33.0156V32.0156C27.0645 32.0156 26.2556 31.9068 25.4779 31.6902L25.2096 32.6535ZM27.9062 33.0156C29.7348 33.0156 31.4518 32.6527 33.0511 31.9237L32.6364 31.0138C31.1732 31.6807 29.5985 32.0156 27.9062 32.0156V33.0156ZM33.3438 31.4688V30.3906H32.3438V31.4688H33.3438ZM32.641 29.9336C31.2296 30.5598 29.7002 30.875 28.0469 30.875V31.875C29.8311 31.875 31.4996 31.534 33.0465 30.8477L32.641 29.9336ZM28.0469 30.875C27.109 30.875 26.2322 30.732 25.4132 30.4492L25.0868 31.3945C26.0178 31.7159 27.0056 31.875 28.0469 31.875V30.875ZM25.4132 30.4492C24.594 30.1664 23.8548 29.7529 23.1929 29.2078L22.5571 29.9797C23.3119 30.6013 24.156 31.0732 25.0868 31.3945L25.4132 30.4492ZM23.1957 29.2101C22.5646 28.6827 22.0508 27.9828 21.6609 27.0957L20.7454 27.4981C21.1888 28.5067 21.7896 29.3382 22.5543 29.9774L23.1957 29.2101ZM21.6635 27.1017C21.287 26.2137 21.0938 25.2034 21.0938 24.0625H20.0938C20.0938 25.3174 20.3067 26.4633 20.7428 27.492L21.6635 27.1017ZM21.0938 24.0625C21.0938 23.1398 21.273 22.2645 21.6312 21.432L20.7126 21.0368C20.2999 21.996 20.0938 23.006 20.0938 24.0625H21.0938ZM21.632 21.4301C21.9939 20.5791 22.4797 19.8524 23.0879 19.2442L22.3808 18.5371C21.6765 19.2414 21.1207 20.0771 20.7118 21.0387L21.632 21.4301ZM23.0879 19.2442C23.6971 18.635 24.4195 18.1491 25.2601 17.7874L24.8649 16.8688C23.9138 17.278 23.0841 17.8338 22.3808 18.5371L23.0879 19.2442ZM25.2582 17.7882C26.1022 17.4293 26.9836 17.25 27.9062 17.25V16.25C26.8498 16.25 25.8353 16.4561 24.8668 16.868L25.2582 17.7882ZM27.9062 17.25C29.0637 17.25 30.1317 17.5214 31.1187 18.0633L31.6 17.1867C30.462 16.5619 29.228 16.25 27.9062 16.25V17.25ZM31.1221 18.0651C32.1142 18.6001 32.9176 19.3265 33.5384 20.2481L34.3678 19.6894C33.6553 18.6318 32.7296 17.7958 31.5967 17.1849L31.1221 18.0651ZM33.6774 19.5516L32.7555 20.161L33.307 20.9952L34.2288 20.3859L33.6774 19.5516ZM33.4457 20.2984C32.8363 19.3956 32.0393 18.6842 31.0618 18.1674L30.5944 19.0514C31.4295 19.4929 32.1012 20.094 32.6168 20.8579L33.4457 20.2984ZM31.0679 18.1706C30.0962 17.6396 29.0395 17.375 27.9062 17.375V18.375C28.8772 18.375 29.7683 18.6 30.5883 19.0481L31.0679 18.1706ZM27.9062 17.375C26.0653 17.375 24.4798 18.0319 23.1777 19.3339L23.8848 20.0411C24.9994 18.9265 26.3306 18.375 27.9062 18.375V17.375ZM23.1777 19.3339C21.8756 20.636 21.2188 22.2215 21.2188 24.0625H22.2188C22.2188 22.4868 22.7702 21.1556 23.8848 20.0411L23.1777 19.3339ZM21.2188 24.0625C21.2188 25.1689 21.3995 26.1694 21.7739 27.0542L22.6949 26.6646C22.3817 25.9244 22.2188 25.0603 22.2188 24.0625H21.2188ZM21.7748 27.0563C22.1457 27.9218 22.6594 28.6359 23.3225 29.1826L23.9587 28.4111C23.4343 27.9787 23.0105 27.4011 22.6939 26.6624L21.7748 27.0563ZM23.3299 29.1886C23.9786 29.7031 24.6955 30.0952 25.4785 30.3636L25.8028 29.4177C25.1274 29.1861 24.511 28.849 23.9513 28.4051L23.3299 29.1886ZM25.4865 30.3663C26.28 30.6233 27.124 30.75 28.0156 30.75V29.75C27.2197 29.75 26.4805 29.6371 25.7947 29.415L25.4865 30.3663ZM28.0156 30.75C29.8165 30.75 31.5006 30.3751 33.061 29.6222L32.6265 28.7216C31.2077 29.4061 29.6731 29.75 28.0156 29.75V30.75ZM33.3438 29.1719V23.4844H32.3438V29.1719H33.3438ZM32.8438 23.9844H33.9688V22.9844H32.8438V23.9844Z" fill="#320E3B" fill-opacity="0.5"/>
<path d="M17.1953 48H16.1943V40.998H17.1953L21.4043 46.4277V40.998H22.4053V48H21.4043L17.1953 42.5703V48ZM28.2031 40.5V50.0996H27.2021V40.5H28.2031ZM33.0049 41.999C33.0049 41.8623 33.0309 41.7337 33.083 41.6133C33.1351 41.4896 33.2067 41.3838 33.2979 41.2959C33.389 41.2048 33.4948 41.1331 33.6152 41.0811C33.7389 41.0257 33.8691 40.998 34.0059 40.998H37.8047C37.9414 40.998 38.07 41.0257 38.1904 41.0811C38.3141 41.1331 38.4215 41.2048 38.5127 41.2959C38.6038 41.3838 38.6755 41.4896 38.7275 41.6133C38.7796 41.7337 38.8057 41.8623 38.8057 41.999V42.9023H37.8047V41.999H34.0059V46.999H37.8047V45.2998H35.9053V44.2988H38.8057V46.999C38.8057 47.1357 38.7796 47.266 38.7275 47.3896C38.6755 47.5101 38.6038 47.6159 38.5127 47.707C38.4215 47.7982 38.3141 47.8698 38.1904 47.9219C38.07 47.974 37.9414 48 37.8047 48H34.0059C33.8691 48 33.7389 47.974 33.6152 47.9219C33.4948 47.8698 33.389 47.7982 33.2979 47.707C33.2067 47.6159 33.1351 47.5101 33.083 47.3896C33.0309 47.266 33.0049 47.1357 33.0049 46.999V41.999Z" fill="#320E3B"/>
<path d="M17.1953 48V48.5H17.6953V48H17.1953ZM16.1943 48H15.6943V48.5H16.1943V48ZM16.1943 40.998V40.498H15.6943V40.998H16.1943ZM17.1953 40.998L17.5905 40.6917L17.4404 40.498H17.1953V40.998ZM21.4043 46.4277L21.0091 46.7341L21.9043 47.8889V46.4277H21.4043ZM21.4043 40.998V40.498H20.9043V40.998H21.4043ZM22.4053 40.998H22.9053V40.498H22.4053V40.998ZM22.4053 48V48.5H22.9053V48H22.4053ZM21.4043 48L21.0091 48.3063L21.1593 48.5H21.4043V48ZM17.1953 42.5703L17.5905 42.264L16.6953 41.1092V42.5703H17.1953ZM17.1953 47.5H16.1943V48.5H17.1953V47.5ZM16.6943 48V40.998H15.6943V48H16.6943ZM16.1943 41.498H17.1953V40.498H16.1943V41.498ZM16.8001 41.3044L21.0091 46.7341L21.7995 46.1214L17.5905 40.6917L16.8001 41.3044ZM21.9043 46.4277V40.998H20.9043V46.4277H21.9043ZM21.4043 41.498H22.4053V40.498H21.4043V41.498ZM21.9053 40.998V48H22.9053V40.998H21.9053ZM22.4053 47.5H21.4043V48.5H22.4053V47.5ZM21.7995 47.6937L17.5905 42.264L16.8001 42.8766L21.0091 48.3063L21.7995 47.6937ZM16.6953 42.5703V48H17.6953V42.5703H16.6953ZM28.2031 40.5H28.7031V40H28.2031V40.5ZM28.2031 50.0996V50.5996H28.7031V50.0996H28.2031ZM27.2021 50.0996H26.7021V50.5996H27.2021V50.0996ZM27.2021 40.5V40H26.7021V40.5H27.2021ZM27.7031 40.5V50.0996H28.7031V40.5H27.7031ZM28.2031 49.5996H27.2021V50.5996H28.2031V49.5996ZM27.7021 50.0996V40.5H26.7021V50.0996H27.7021ZM27.2021 41H28.2031V40H27.2021V41ZM33.083 41.6133L33.542 41.8117L33.5438 41.8073L33.083 41.6133ZM33.2979 41.2959L33.645 41.6559L33.6514 41.6495L33.2979 41.2959ZM33.6152 41.0811L33.8137 41.54L33.8194 41.5375L33.6152 41.0811ZM38.1904 41.0811L37.9817 41.5354L37.989 41.5388L37.9964 41.5419L38.1904 41.0811ZM38.5127 41.2959L38.1591 41.6495L38.1656 41.6558L38.5127 41.2959ZM38.7275 41.6133L38.2667 41.8073L38.2686 41.8117L38.7275 41.6133ZM38.8057 42.9023V43.4023H39.3057V42.9023H38.8057ZM37.8047 42.9023H37.3047V43.4023H37.8047V42.9023ZM37.8047 41.999H38.3047V41.499H37.8047V41.999ZM34.0059 41.999V41.499H33.5059V41.999H34.0059ZM34.0059 46.999H33.5059V47.499H34.0059V46.999ZM37.8047 46.999V47.499H38.3047V46.999H37.8047ZM37.8047 45.2998H38.3047V44.7998H37.8047V45.2998ZM35.9053 45.2998H35.4053V45.7998H35.9053V45.2998ZM35.9053 44.2988V43.7988H35.4053V44.2988H35.9053ZM38.8057 44.2988H39.3057V43.7988H38.8057V44.2988ZM38.7275 47.3896L39.1865 47.5881L39.1884 47.5837L38.7275 47.3896ZM38.1904 47.9219L37.9964 47.461L37.992 47.4629L38.1904 47.9219ZM33.6152 47.9219L33.4168 48.3808L33.4212 48.3827L33.6152 47.9219ZM33.2979 47.707L32.9443 48.0606L33.2979 47.707ZM33.083 47.3896L32.6222 47.5837L32.6241 47.5881L33.083 47.3896ZM33.5049 41.999C33.5049 41.9276 33.5181 41.8669 33.5419 41.8117L32.6241 41.4148C32.5438 41.6005 32.5049 41.797 32.5049 41.999H33.5049ZM33.5438 41.8073C33.5712 41.7422 33.6054 41.6939 33.6449 41.6558L32.9508 40.936C32.808 41.0737 32.699 41.2369 32.6222 41.4193L33.5438 41.8073ZM33.6514 41.6495C33.6971 41.6037 33.7501 41.5675 33.8137 41.54L33.4168 40.6221C33.2395 40.6988 33.0808 40.8058 32.9443 40.9423L33.6514 41.6495ZM33.8194 41.5375C33.8783 41.5111 33.9389 41.498 34.0059 41.498V40.498C33.7994 40.498 33.5996 40.5403 33.4111 40.6246L33.8194 41.5375ZM34.0059 41.498H37.8047V40.498H34.0059V41.498ZM37.8047 41.498C37.8717 41.498 37.9288 41.5111 37.9817 41.5354L38.3992 40.6267C38.2112 40.5403 38.0111 40.498 37.8047 40.498V41.498ZM37.9964 41.5419C38.063 41.5699 38.1156 41.6059 38.1591 41.6495L38.8662 40.9423C38.7275 40.8036 38.5653 40.6964 38.3845 40.6202L37.9964 41.5419ZM38.1656 41.6558C38.2051 41.6939 38.2393 41.7422 38.2667 41.8073L39.1884 41.4193C39.1116 41.2369 39.0026 41.0737 38.8598 40.936L38.1656 41.6558ZM38.2686 41.8117C38.2925 41.8669 38.3057 41.9276 38.3057 41.999H39.3057C39.3057 41.797 39.2668 41.6005 39.1865 41.4148L38.2686 41.8117ZM38.3057 41.999V42.9023H39.3057V41.999H38.3057ZM38.8057 42.4023H37.8047V43.4023H38.8057V42.4023ZM38.3047 42.9023V41.999H37.3047V42.9023H38.3047ZM37.8047 41.499H34.0059V42.499H37.8047V41.499ZM33.5059 41.999V46.999H34.5059V41.999H33.5059ZM34.0059 47.499H37.8047V46.499H34.0059V47.499ZM38.3047 46.999V45.2998H37.3047V46.999H38.3047ZM37.8047 44.7998H35.9053V45.7998H37.8047V44.7998ZM36.4053 45.2998V44.2988H35.4053V45.2998H36.4053ZM35.9053 44.7988H38.8057V43.7988H35.9053V44.7988ZM38.3057 44.2988V46.999H39.3057V44.2988H38.3057ZM38.3057 46.999C38.3057 47.0704 38.2925 47.1345 38.2667 47.1956L39.1884 47.5837C39.2668 47.3974 39.3057 47.2011 39.3057 46.999H38.3057ZM38.2686 47.1912C38.2411 47.2548 38.2049 47.3077 38.1591 47.3535L38.8662 48.0606C39.0028 47.924 39.1098 47.7654 39.1865 47.5881L38.2686 47.1912ZM38.1591 47.3535C38.1156 47.397 38.063 47.433 37.9964 47.4611L38.3845 48.3827C38.5653 48.3066 38.7275 48.1993 38.8662 48.0606L38.1591 47.3535ZM37.992 47.4629C37.9368 47.4868 37.8761 47.5 37.8047 47.5V48.5C38.0067 48.5 38.2032 48.4611 38.3889 48.3808L37.992 47.4629ZM37.8047 47.5H34.0059V48.5H37.8047V47.5ZM34.0059 47.5C33.9345 47.5 33.8704 47.4868 33.8093 47.4611L33.4212 48.3827C33.6075 48.4611 33.8038 48.5 34.0059 48.5V47.5ZM33.8137 47.4629C33.7501 47.4354 33.6971 47.3992 33.6514 47.3535L32.9443 48.0606C33.0808 48.1971 33.2395 48.3042 33.4168 48.3808L33.8137 47.4629ZM33.6514 47.3535C33.6057 47.3077 33.5695 47.2548 33.5419 47.1912L32.6241 47.5881C32.7007 47.7654 32.8077 47.924 32.9443 48.0606L33.6514 47.3535ZM33.5438 47.1956C33.5181 47.1345 33.5049 47.0704 33.5049 46.999H32.5049C32.5049 47.2011 32.5438 47.3974 32.6222 47.5837L33.5438 47.1956ZM33.5049 46.999V41.999H32.5049V46.999H33.5049Z" fill="#320E3B"/>
<rect x="0.5" y="0.5" width="54" height="53" stroke="#320E3B"/>
</svg>
